# xmcd
#
# Track frame offsets: 
#        150
#        20874
#        37388
#        55502
#        72542
#        90358
#        109298
#        124947
#        141623
#        159024
#        175737
#        194317
#        214310
#        233710
#        251337
#        266091
#        281267
#        297120
#        315404
#        336080
#
# Disc length: 4700 seconds
#
# Revision: 4
# Processed by: cddbd v1.5.1PL0 Copyright (c) Steve Scherf et al.
# Submitted via: ExactAudioCopy v0.95a4
#
DISCID=2c125a14
DTITLE=Various Artist - 100 Dance Hits of The 80's [CD1]
DYEAR=1989
DGENRE=Dance
TTITLE0=Black Box - Ride On Time
TTITLE1=Techtronic feat. Felly - Pump The Jam
TTITLE2=Yazz and The Plastic Population - The Only Way Is Up
TTITLE3=Coldcut feat. Yazz - Doctorin' the House
TTITLE4=Coldcut feat. Lisa Stanfield - People Hold On
TTITLE5=Starlight - Numero Uno (radio edit)
TTITLE6=Kaoma - Lambada
TTITLE7=Sybil - Don't Make Me Over
TTITLE8=Alexander O'neal - Fake '88
TTITLE9=Jellybean feat. Elisa Fiorillo) - Who Found Who
TTITLE10=Bill Withers - Lovely Day (sunshine mix)
TTITLE11=Luther Vandross - I Really Didn't Mean It
TTITLE12=The Pasadenas - Tribute (right on)
TTITLE13=The Funky Worm - Hustle (to the music...) radio 1
TTITLE14=Stock, Aitken, Waterman - Roadblock
TTITLE15=Mel and Kim - Respectable
TTITLE16=Four tops - Loco in Acapulco
TTITLE17=Gregory Abbott - Shake You Down
TTITLE18=Jellybean (with Steven Dante) - The Real thing
TTITLE19=Pointer Sisters - Automatic
EXTD=
EXTT0=
EXTT1=
EXTT2=
EXTT3=
EXTT4=
EXTT5=
EXTT6=
EXTT7=
EXTT8=
EXTT9=
EXTT10=
EXTT11=
EXTT12=
EXTT13=
EXTT14=
EXTT15=
EXTT16=
EXTT17=
EXTT18=
EXTT19=
PLAYORDER=
